HIERARCHY
ROOT Hips
{
	OFFSET 0.000000 0.000000 0.000000 
	CHANNELS 6 Xposition Yposition Zposition Yrotation Zrotation Xrotation 
	JOINT Lumbar
	{
		OFFSET 0.000000 0.000000 0.000000 
		CHANNELS 3 Zrotation Xrotation Yrotation
		JOINT Neck
		{
			OFFSET 0.000000 0.445665 0.000000 
			CHANNELS 3 Zrotation Xrotation Yrotation
			End Site
			{
				OFFSET 0.000000 0.227535 0.000000 
			}
		}
		JOINT RightShoulder
		{
			OFFSET 0.019635 0.377685 0.194865 
			CHANNELS 3 Zrotation Xrotation Yrotation
			JOINT RightElbow
			{
				OFFSET 0.000000 -0.243375 0.000000 
				CHANNELS 2 Zrotation Yrotation
				JOINT RightWrist
				{
					OFFSET 0.000000 -0.264825 0.000000 
					CHANNELS 2 Zrotation Xrotation
					End Site
					{
						OFFSET 0.006600 -0.176220 0.000990 
					}
				}
			}
		}
		JOINT LeftShoulder
		{
			OFFSET 0.019635 0.377685 -0.194865 
			CHANNELS 3 Zrotation Xrotation Yrotation
			JOINT LeftElbow
			{
				OFFSET 0.000000 -0.243375 0.000000 
				CHANNELS 2 Zrotation Yrotation
				JOINT LeftWrist
				{
					OFFSET 0.000000 -0.264825 0.000000 
					CHANNELS 2 Zrotation Xrotation
					End Site
					{
						OFFSET 0.006600 -0.176220 -0.000990 
					}
				}
			}
		}
	}
	JOINT RightHip
	{
		OFFSET 0.052140 -0.069960 0.075570 
		CHANNELS 3 Zrotation Xrotation Yrotation
		JOINT RightKnee
		{
			OFFSET 0.000000 -0.402270 0.000000 
			CHANNELS 1 Zrotation
			JOINT RightAnkle
			{
				OFFSET 0.000000 -0.404085 0.000000 
				CHANNELS 3 Zrotation Xrotation Yrotation
				End Site
				{
					OFFSET 0.204105 -0.089430 0.008415 
				}
			}
		}
	}
	JOINT LeftHip
	{
		OFFSET 0.052140 -0.069960 -0.075570 
		CHANNELS 3 Zrotation Xrotation Yrotation
		JOINT LeftKnee
		{
			OFFSET 0.000000 -0.402270 0.000000 
			CHANNELS 1 Zrotation
			JOINT LeftAnkle
			{
				OFFSET 0.000000 -0.404085 0.000000 
				CHANNELS 3 Zrotation Xrotation Yrotation
				End Site
				{
					OFFSET 0.204105 -0.089430 -0.008415 
				}
			}
		}
	}
}
MOTION
Frames: 33
Frame Time: 0.02
0.57608 -0.4175 0.12263 -536.04107 0.80572 -6.46343 14.04963 6.26036 -11.1405 -32.41026 -9.58171 -0.82934 -50.99618 -59.52288 -37.0848 106.61335 74.56169 4.20205 -7.05998 -30.06929 20.49636 -28.36342 75.35462 -28.31285 26.30248 12.50903 98.3923 -13.038 -14.18548 -125.07527 -9.13963 -3.226 -2.44113 94.26926 8.52926 1.92608 -106.59344 -11.90629 0.10384 0.79845
0.57581 -0.41702 0.1226 -535.9828 0.69611 -6.50755 14.64619 6.23699 -11.37239 -32.46174 -10.16257 -0.82936 -51.23406 -59.51634 -40.10107 105.31192 74.22737 5.55979 -6.80974 -30.13731 20.32092 -28.20255 75.19185 -34.12626 23.78919 11.78908 98.45322 -13.00612 -14.2018 -125.06433 -9.11756 -3.25536 -2.45799 94.41778 8.35003 1.85106 -106.55754 -11.82015 0.1378 0.81723
0.5755 -0.41645 0.12254 -535.91049 0.55603 -6.55715 15.30972 6.21534 -11.6229 -32.51676 -10.80468 -0.82938 -50.98288 -59.39769 -42.78272 103.79896 73.96314 7.09186 -6.52525 -30.22011 20.12011 -28.01903 75.02214 -41.42751 20.62169 10.87472 98.53598 -12.96443 -14.21451 -125.0505 -9.09078 -3.29292 -2.47957 94.60758 8.17117 1.78341 -106.4774 -11.71536 0.17822 0.83898
0.57521 -0.41592 0.12248 -535.84491 0.43278 -6.60394 15.93521 6.1832 -11.85467 -32.56813 -11.38957 -0.8294 -50.95728 -59.3332 -45.60472 102.35738 73.66811 8.5366 -6.26155 -30.29172 19.93961 -27.85724 74.86914 -47.86563 17.82743 10.07432 98.6086 -12.92337 -14.22582 -125.03646 -9.06808 -3.3263 -2.49873 94.77082 7.98533 1.71734 -106.37063 -11.61831 0.21603 0.85935
0.57488 -0.41539 0.12246 -535.77712 0.29605 -6.65211 16.59459 6.19051 -12.12922 -32.62683 -12.0948 -0.82942 -50.92182 -59.24341 -48.4788 101.00995 73.30206 10.04583 -5.98187 -30.38336 19.72226 -27.64646 74.66198 -55.12557 14.6988 9.16306 98.68144 -12.89913 -14.25124 -125.03079 -9.0362 -3.36195 -2.51915 94.96882 7.82619 1.62857 -106.46283 -11.52174 0.25306 0.8801
0.57464 -0.41483 0.12236 -535.71104 0.1811 -6.69882 17.19806 6.11804 -12.31926 -32.67257 -12.5687 -0.82945 -50.78501 -59.18565 -51.1644 99.42096 73.12761 11.45284 -5.72471 -30.43516 19.57489 -27.53282 74.56191 -60.99442 12.12554 8.43974 98.75986 -12.83714 -14.24473 -125.00474 -9.02356 -3.39437 -2.5379 95.10192 7.61286 1.59098 -106.128 -11.4229 0.29258 0.90051
0.57469 -0.41417 0.12201 -535.65145 0.12627 -6.73892 17.63685 5.8072 -12.27209 -32.6693 -12.34549 -0.82948 -50.53676 -59.22635 -53.40364 97.20536 73.44801 12.50498 -5.54186 -30.38846 19.63491 -27.68991 74.79577 -62.92678 11.12692 8.2542 98.84126 -12.67451 -14.16547 -124.93864 -9.05422 -3.41995 -2.5526 95.0656 7.2434 1.67485 -104.64486 -11.29505 0.34293 0.9214
0.57484 -0.41349 0.1216 -535.59459 0.0958 -6.77769 18.01541 5.41908 -12.1392 -32.65493 -11.89416 -0.82952 -50.19307 -59.3081 -55.46453 94.7565 73.97165 13.4485 -5.38142 -30.2987 19.76468 -27.94569 75.13138 -63.37052 10.72656 8.26828 98.92897 -12.47361 -14.05149 -124.84703 -9.10618 -3.44139 -2.5652 94.95898 6.82104 1.81298 -102.73158 -11.1702 0.39464 0.94152
0.57495 -0.41284 0.12123 -535.53752 0.05916 -6.81771 18.4178 5.07813 -12.04521 -32.65414 -11.57727 -0.82955 -49.8628 -59.38355 -57.61329 92.42443 74.42219 14.45748 -5.20736 -30.2183 19.8576 -28.159 75.39584 -64.30018 10.13837 8.21194 99.01829 -12.2898 -13.94389 -124.75966 -9.15595 -3.46191 -2.57757 94.87125 6.42697 1.93867 -100.99978 -11.0625 0.44188 0.9605
0.57506 -0.41208 0.12079 -535.47508 0.00089 -6.8547 18.83889 4.68722 -11.95213 -32.61854 -11.13781 -0.82959 -49.64721 -59.40162 -59.72664 90.04313 74.79099 15.40779 -5.04637 -30.1801 19.97202 -28.3635 75.7631 -66.02827 9.19685 8.06986 99.08897 -12.10826 -13.87584 -124.71216 -9.17508 -3.494 -2.59485 94.83937 6.01387 2.01472 -99.31805 -10.87794 0.50506 0.9856
0.57518 -0.41154 0.12049 -535.4253 -0.00632 -6.89823 19.20414 4.38093 -11.83651 -32.65137 -10.89218 -0.82962 -49.16981 -59.55187 -61.86946 87.70693 75.37969 16.44883 -4.86433 -30.04539 20.05773 -28.60752 75.94315 -65.79357 9.11127 8.14782 99.20033 -11.91136 -13.71723 -124.56444 -9.26174 -3.50154 -2.60166 94.67483 5.62922 2.20485 -97.43986 -10.85198 0.53597 0.99808
0.57526 -0.41163 0.12058 -535.40453 0.12362 -6.95501 19.44378 4.33655 -11.68006 -32.88816 -11.29341 -0.82963 -48.0548 -60.04643 -64.19372 85.59554 76.51076 17.79264 -4.61514 -29.63909 20.05475 -28.95934 75.55896 -59.8533 11.51469 8.85999 99.41682 -11.69593 -13.31779 -124.24018 -9.54175 -3.43659 -2.57739 94.15314 5.32442 2.71451 -95.04404 -11.28447 0.47117 0.97293
0.57536 -0.41193 0.12082 -535.39747 0.30404 -7.01933 19.62605 4.37839 -11.50379 -33.19201 -11.88723 -0.82964 -46.67248 -60.6755 -66.54573 83.53088 77.85862 19.22554 -4.34485 -29.14006 20.01955 -29.34384 74.98734 -52.09329 14.7154 9.77475 99.67501 -11.46395 -12.82903 -123.79757 -9.88674 -3.34799 -2.54308 93.50175 5.0524 3.33351 -92.48067 -11.87267 0.37489 0.93561
0.5755 -0.41213 0.12098 -535.38762 0.45993 -7.08362 19.8256 4.37448 -11.33614 -33.4569 -12.35551 -0.82965 -45.37185 -61.25018 -68.84876 81.41724 79.1172 20.60008 -4.08664 -28.69357 19.99367 -29.69797 74.5159 -45.59725 17.3711 10.54683 99.91772 -11.22976 -12.37975 -123.34861 -10.19408 -3.27403 -2.51518 92.91466 4.77283 3.8911 -90.04688 -12.37564 0.2972 0.90587
0.57547 -0.41237 0.12117 -535.36326 0.62269 -7.13371 20.06158 4.39504 -11.16689 -33.75671 -12.97484 -0.82965 -44.22742 -61.79645 -71.2957 79.41133 80.34454 22.04718 -3.81853 -28.20142 19.99105 -30.11918 73.98354 -37.24491 20.80217 11.53473 100.14597 -11.03428 -11.9309 -123.15612 -10.53647 -3.18387 -2.47964 92.30212 4.45979 4.50112 -87.3722 -12.93943 0.2018 0.86765
0.57578 -0.41256 0.12135 -535.37242 0.78367 -7.21496 20.20712 4.38679 -10.99771 -34.00051 -13.33014 -0.82966 -42.7057 -62.43494 -73.45583 77.19664 81.68494 23.36473 -3.56595 -27.78325 19.9335 -30.40947 73.53364 -32.29645 22.82036 12.12454 100.41419 -10.75603 -11.46422 -122.3973 -10.82096 -3.12142 -2.45738 91.71318 4.22569 5.02585 -85.16542 -13.4139 0.13538 0.84397
0.57703 -0.41256 0.1215 -535.47021 0.91984 -7.3821 20.1318 4.27255 -10.83119 -34.06759 -12.89385 -0.82966 -40.10459 -63.28065 -74.77805 74.38446 83.29251 24.3112 -3.3593 -27.58932 19.71375 -30.30974 73.3445 -37.62648 20.56294 11.5138 100.78255 -10.24159 -10.93844 -120.14127 -10.93002 -3.14568 -2.47682 91.21722 4.19478 5.29924 -84.29152 -13.60008 0.16027 0.8655
0.57862 -0.4125 0.12165 -535.6013 1.05373 -7.57998 19.96499 4.12774 -10.66635 -34.07711 -12.18914 -0.82966 -37.14155 -64.21632 -75.81467 71.36464 85.00494 25.12324 -3.16915 -27.47362 19.44282 -30.08038 73.24637 -46.37235 16.88612 10.50396 101.18988 -9.64633 -10.40442 -117.31309 -10.97846 -3.19803 -2.50961 90.75058 4.24318 5.48043 -83.89674 -13.69155 0.2148 0.90175
0.58006 -0.41248 0.12181 -535.71756 1.19355 -7.76275 19.83057 4.00083 -10.50263 -34.11669 -11.61866 -0.82967 -34.42654 -65.12105 -77.01401 68.44592 86.66175 25.9917 -2.9729 -27.32433 19.20715 -29.9234 73.11486 -53.27569 13.97429 9.70995 101.57912 -9.09652 -9.89447 -114.72154 -11.05418 -3.23438 -2.53445 90.27339 4.26062 5.69674 -83.28457 -13.8288 0.2533 0.92986
0.58149 -0.41243 0.12195 -535.83323 1.31466 -7.95081 19.73277 3.85995 -10.32993 -34.142 -11.00338 -0.82967 -31.3955 -65.99149 -78.09255 65.49567 88.35552 26.88259 -2.7706 -27.16414 18.92012 -29.71105 72.94451 -61.33506 10.58636 8.77828 101.97058 -8.51118 -9.2934 -112.2221 -11.13298 -3.28273 -2.56639 89.77981 4.25985 5.94667 -82.66374 -13.96032 0.30122 0.9635
0.58301 -0.41241 0.12211 -535.95762 1.4733 -8.13476 19.53792 3.73982 -10.17694 -34.18267 -10.41478 -0.82967 -28.88242 -66.94927 -79.33275 62.56692 89.99985 27.69414 -2.58436 -27.04562 18.72785 -29.58243 72.87745 -67.8275 7.83999 8.03516 102.36721 -7.9785 -8.88406 -109.39961 -11.19057 -3.31411 -2.58748 89.32914 4.31277 6.10181 -82.17829 -14.07879 0.33732 0.98947
0.58475 -0.41249 0.12235 -536.09962 1.73747 -8.30208 19.09617 3.68404 -10.07584 -34.27769 -9.96882 -0.82971 -28.41216 -68.15535 -81.28339 59.70358 91.42922 28.31486 -2.44539 -27.03089 18.81376 -29.71987 73.08892 -69.10732 7.2338 7.91664 102.7593 -7.63237 -8.98445 -105.80074 -11.1998 -3.28271 -2.56993 88.98972 4.51719 6.02976 -81.93981 -14.18737 0.33076 0.98913
0.58657 -0.4126 0.12261 -536.24867 2.03875 -8.46362 18.56057 3.64987 -9.99528 -34.39008 -9.55769 -0.82975 -28.39825 -69.43877 -83.37534 56.87993 92.81082 28.86051 -2.32125 -27.05445 18.99618 -29.94544 73.3995 -68.70395 7.31686 8.0003 103.15694 -7.33866 -9.28316 -101.90336 -11.19014 -3.23498 -2.54199 88.69319 4.76845 5.86302 -81.82361 -14.28463 0.31197 0.98091
0.58832 -0.4127 0.12286 -536.39355 2.32218 -8.62648 18.06896 3.60565 -9.90649 -34.49572 -9.12713 -0.82979 -27.80887 -70.66869 -85.26864 54.06382 94.25181 29.44349 -2.1853 -27.05577 19.13195 -30.12826 73.65513 -69.12224 7.06294 7.98515 103.55771 -7.00641 -9.50507 -98.157 -11.192 -3.20088 -2.52248 88.37761 4.98339 5.73084 -81.65875 -14.3845 0.30079 0.97739
0.59021 -0.41277 0.1231 -536.54447 2.61064 -8.79647 17.56804 3.56135 -9.812 -34.59509 -8.70139 -0.82983 -28.68225 -71.98481 -87.69847 51.1213 95.55047 30.00944 -2.06955 -27.08008 19.27773 -30.31737 73.9546 -69.44787 6.84942 7.98194 103.93533 -6.73133 -9.66805 -94.31869 -11.18004 -3.14186 -2.48802 88.06084 5.26492 5.63002 -81.48173 -14.4924 0.28197 0.9697
0.59182 -0.41293 0.12337 -536.68303 2.89632 -8.94918 17.06596 3.52278 -9.73556 -34.71173 -8.27881 -0.82987 -26.72039 -73.13167 -89.07449 48.46823 97.11659 30.59332 -1.91727 -27.06473 19.4262 -30.51672 74.18646 -69.48638 6.74745 8.01145 104.36281 -6.35337 -10.00388 -90.61734 -11.19234 -3.13009 -2.48177 87.75672 5.41744 5.44416 -81.35235 -14.58145 0.27576 0.9686
0.5926 -0.41335 0.12368 -536.79453 3.17494 -9.06094 16.57961 3.49465 -9.69279 -34.87732 -7.84548 -0.82991 -15.98177 -73.84927 -87.27384 46.48936 99.56094 31.24982 -1.64263 -26.92957 19.5593 -30.71648 74.19711 -69.45096 6.66902 8.04389 104.91936 -5.65538 -10.74424 -87.29665 -11.2837 -3.25628 -2.55822 87.47442 5.20527 5.03334 -81.32711 -14.62701 0.30724 0.98773
0.59308 -0.41386 0.12401 -536.89163 3.44763 -9.15426 16.09657 3.47182 -9.66961 -35.05877 -7.41781 -0.82993 -2.53627 -74.38191 -84.44827 44.82519 102.24444 31.92111 -1.33501 -26.75347 19.69195 -30.92481 74.13863 -69.11907 6.70428 8.10993 105.52705 -4.85661 -11.65634 -84.14166 -11.39915 -3.42977 -2.6629 87.20392 4.86086 4.54327 -81.34275 -14.65343 0.3517 1.01367
0.5937 -0.41432 0.12434 -536.98928 3.71678 -9.25245 15.6151 3.44667 -9.64467 -35.22985 -6.99567 -0.82996 9.1252 -74.96242 -82.25108 43.09091 104.7431 32.59032 -1.05282 -26.59568 19.82447 -31.13469 74.11706 -68.69336 6.77494 8.18927 106.11592 -4.11971 -12.50571 -80.9581 -11.49887 -3.57921 -2.7531 86.92941 4.57439 4.09846 -81.33561 -14.68517 0.39016 1.03636
0.59431 -0.41482 0.12464 -537.11212 4.01379 -9.36563 15.11721 3.42146 -9.58999 -35.41556 -6.53911 -0.83 23.1267 -75.70188 -79.38979 41.04118 107.59126 33.2603 -0.72284 -26.43843 19.96148 -31.32677 74.0724 -69.14009 6.51539 8.16063 106.68641 -3.31732 -13.29711 -77.56038 -11.61762 -3.739 -2.84995 86.65001 4.298 3.61068 -81.35073 -14.73044 0.42866 1.05944
0.59487 -0.41525 0.12501 -537.17942 4.25059 -9.44284 14.65567 3.39788 -9.602 -35.57347 -6.15678 -0.83002 32.88121 -76.06104 -77.64442 39.73387 109.73177 33.90425 -0.4897 -26.27245 20.08812 -31.55409 74.06239 -67.76581 6.94398 8.35499 107.30716 -2.626 -14.24768 -74.65967 -11.7033 -3.88854 -2.93975 86.38391 3.9695 3.19555 -81.3276 -14.74352 0.47029 1.08342
0.59535 -0.41549 0.12558 -537.09289 4.32503 -9.42887 14.29373 3.37295 -9.79042 -35.65793 -5.96494 -0.83004 30.4521 -75.45281 -79.41628 40.3084 110.19224 34.72774 -0.4839 -26.06935 20.18327 -31.89966 74.12896 -61.06023 9.39464 9.21908 108.05457 -2.27196 -15.59198 -73.02981 -11.6871 -3.99925 -3.00363 86.1438 3.52134 2.99522 -81.18728 -14.66928 0.51769 1.10825
0.5958 -0.41565 0.12622 -536.95164 4.33848 -9.37857 13.96894 3.35025 -10.04572 -35.71238 -5.85017 -0.83004 23.63459 -74.4621 -82.30807 41.63806 109.88145 35.48213 -0.58388 -25.86272 20.26827 -32.27553 74.23985 -52.61683 12.50091 10.29363 108.85056 -2.03157 -17.08935 -71.90836 -11.63784 -4.09792 -3.05944 85.91791 3.02672 2.87247 -81.00674 -14.56395 0.56778 1.13376
